<?xml version="1.0" encoding="utf-8"?>
<svg version="1.1" xmlns:xlink="http://www.w3.org/1999/xlink" width="23px" height="23px" xmlns="http://www.w3.org/2000/svg">
  <g transform="matrix(1 0 0 1 -728 -113 )">
    <path d="M 20.7467509529836 17.3612832234452  C 20.7008367629 16.9021413226086  20.3335232422307 16.4889136118556  19.598896200892 16.029771711019  C 19.8284671513104 15.9379433308517  20.8844935232346 15.2492304795967  21.4813779943222 14.7900885787601  C 21.8486915149916 14.5146034382581  22.3078334158282 14.1013757275051  22.9047178869158 13.5044912564175  C 22.9506320769995 13.4585770663338  22.9965462670832 13.2749203059992  22.9047178869158 13.1371777357482  C 22.4455759860792 12.0352371737403  21.9405198951589 11.2087817522343  21.3895496141549 10.565983091063  C 20.8844935232346 9.9690986199754  19.4152394405574 9.09672900838579  18.5887840190514 8.77532967780015  C 18.8183549694698 8.45393034721451  19.2774968703064 8.22435939679619  19.9662097215613 8.0866168265452  C 19.9202955314777 7.62747492570856  19.461153630641 7.12241883478826  18.5887840190514 6.5714485537843  C 17.7164144074618 6.02047827278034  16.5226454652866 5.88273570252935  15.0074771925257 6.204135033115  C 15.0074771925257 5.65316475211103  14.6401636718564 4.6889667603541  13.8596224404341 3.26562686776053  C 12.7576818784262 1.10765993382835  8.21217706014348 0.418947082573397  8.25809125022714 1.42905926441399  C 8.67131896098011 2.66874239667291  8.85497572131477 4.27573904960113  8.90088991139843 6.15822084303133  C 8.34991963039447 5.51542218186004  7.75303515930684 5.10219447110707  7.11023649813555 4.91853771077242  C 6.60518040721525 4.78079514052143  6.14603850637862 4.73488095043776  5.68689660554198 4.82670933060509  C 5.64098241545832 4.82670933060509  5.59506822537466 4.87262352068876  5.54915403529099 4.87262352068876  C 5.41141146504 4.96445190085608  5.41141146504 5.1940228512744  5.50323984520733 5.33176542152539  C 5.77872498570931 5.6990789421947  5.9164675559603 5.97456408269668  6.00829593612763 6.15822084303133  C 6.10012431629496 6.43370598353331  6.28378107662961 6.80101950420262  6.51335202704793 7.35198978520658  C 5.82463917579298 7.26016140503926  4.95226956420337 7.48973235545757  3.75850062202812 8.04070263646153  C 2.65656006002019 8.59167291746549  1.73827625834692 9.83135604972441  0.957735026924638 11.8056662233219  C 0.957735026924638 11.9893229836566  1.04956340709197 12.2188939340749  1.18730597734296 12.2648081241586  C 2.24333234926722 12.4484648844932  2.97795939060584 12.6321216448279  3.39118710135881 12.8616925952462  C 3.85032900219544 13.0912635456645  4.35538509311574 13.5963196365848  4.95226956420337 14.2850324878398  C 4.72269861378505 14.2391182977561  4.35538509311574 14.4686892481744  3.80441481211178 14.9737453390947  C 3.29935872119148 15.3869730498477  2.93204520052217 16.029771711019  2.70247425010385 16.9480555126923  C 2.70247425010385 17.1317122730269  2.79430263027118 17.3612832234452  2.97795939060583 17.3612832234452  C 3.75850062202811 17.4071974135289  4.53904185345039 17.5449399837799  5.27366889478901 17.7745109341982  C 6.10012431629496 18.0499960747002  6.74292297746624 18.3254812152022  7.20206487830288 18.6468805457878  C 7.20206487830288 18.6468805457878  7.20206487830288 15.9838575209353  7.20206487830288 15.9838575209353  C 7.20206487830288 15.341058859764  7.15615068821922 14.8360027688437  7.79894934939051 14.0554615374215  C 8.4417480105618 13.2749203059992  9.08454667173309 13.0912635456645  10.599714944494 13.6881480167521  C 12.1148832172549 14.2850324878398  13.8137082503504 13.0453493555809  15.1452197627767 13.3667486861665  C 16.5226454652866 13.6881480167521  17.2113583165415 15.065573719262  17.3491008867925 16.029771711019  C 17.4868434570435 16.9939697027759  17.3491008867925 17.4990257936962  17.3491008867925 18.6927947358715  C 17.3491008867925 18.6927947358715  17.3491008867925 18.8764514962061  17.3491008867925 18.8764514962061  C 18.0378137380475 18.4632237854531  18.4510414488004 18.2336528350348  19.0020117298044 18.0040818846165  C 19.3693252504737 17.8204251242819  19.9662097215613 17.6367683639472  20.7467509529836 17.3612832234452  Z M 11.1965994155816 19.7488211077958  C 11.0129426552469 19.7488211077958  10.8292858949123 19.6569927276284  10.5078865643266 19.5651643474611  C 10.0946588535737 19.3355933970428  9.45186019240238 19.4274217772101  9.08454667173307 19.6110785375448  C 8.71723315106376 19.7947352978794  8.25809125022713 20.3457055788834  8.25809125022713 20.8507616698037  C 8.25809125022713 21.355817760724  8.39583382047812 21.6772170913096  8.48766220064545 21.8608738516442  C 8.53357639072911 21.9986164218952  8.6713189609801 22.1363589921462  8.85497572131476 22.3659299425645  C 8.90088991139842 22.4577583227319  8.99271829156575 22.4577583227319  9.08454667173307 22.4577583227319  C 9.08454667173307 22.4577583227319  9.72734533290436 22.3200157524809  9.72734533290436 22.3200157524809  C 9.72734533290436 22.3200157524809  11.1047710354143 22.9628144136522  11.1047710354143 22.9628144136522  C 11.1506852254979 23.0087286037358  11.2425136056653 23.0087286037358  11.2884277957489 22.9628144136522  C 11.2884277957489 22.9628144136522  12.8035960685098 22.3200157524809  12.8035960685098 22.3200157524809  C 12.8035960685098 22.3200157524809  13.5841372999321 22.4577583227319  13.5841372999321 22.4577583227319  C 13.6300514900158 22.4577583227319  13.7218798701831 22.4577583227319  13.7677940602668 22.4118441326482  C 14.1351075809361 22.1822731822299  14.3646785313544 21.8608738516442  14.5024211016054 21.5394745210586  C 14.68607786194 20.9885042400547  14.5024211016054 20.1161346284651  14.0432792007687 19.7488211077958  C 13.6300514900158 19.3355933970428  12.9872528288445 19.1978508267918  12.3444541676732 19.4733359672938  C 11.8393980767529 19.6569927276284  11.4720845560836 19.7488211077958  11.1965994155816 19.7488211077958  Z M 13.4463947296811 18.6927947358715  C 13.8267603344205 18.6927947358715  14.1351075809361 18.2405521076486  14.1351075809361 17.6826825540309  C 14.1351075809361 17.1248130004131  13.8267603344205 16.6725703721903  13.4463947296811 16.6725703721903  C 13.0660291249417 16.6725703721903  12.7576818784261 17.1248130004131  12.7576818784261 17.6826825540309  C 12.7576818784261 18.2405521076486  13.0660291249417 18.6927947358715  13.4463947296811 18.6927947358715  Z M 10.186487233741 17.6826825540309  C 10.186487233741 17.1248130004131  9.87813998722543 16.6725703721903  9.49777438248605 16.6725703721903  C 9.11740877774666 16.6725703721903  8.8090615312311 17.1248130004131  8.8090615312311 17.6826825540309  C 8.8090615312311 18.2405521076486  9.11740877774666 18.6927947358715  9.49777438248605 18.6927947358715  C 9.87813998722543 18.6927947358715  10.186487233741 18.2405521076486  10.186487233741 17.6826825540309  Z " fill-rule="nonzero" fill="#db4e18" stroke="none" transform="matrix(1 0 0 1 728 113 )" />
  </g>
</svg>