<?xml version="1.0" encoding="utf-8"?>
<svg version="1.1" xmlns:xlink="http://www.w3.org/1999/xlink" width="16px" height="16px" xmlns="http://www.w3.org/2000/svg">
  <g transform="matrix(1 0 0 1 -151 -11 )">
    <path d="M 11.5333333333333 9.59999999999999  C 13.7333333333333 10.5333333333333  16 11.7  16 13.6666666666667  C 16 13.6666666666667  16 14.4  16 14.4  C 16 15.2666666666667  15.2666666666667 16  14.4 16  C 14.4 16  1.6 16  1.6 16  C 0.733333333333333 16  0 15.2666666666667  0 14.4  C 0 14.4  0 13.6666666666667  0 13.6666666666667  C 0 11.7333333333333  2.26666666666667 10.5333333333333  4.4 9.59999999999999  C 4.4 9.59999999999999  4.6 9.49999999999999  4.6 9.49999999999999  C 4.76666666666667 9.43333333333332  4.93333333333333 9.43333333333332  5.1 9.53333333333332  C 5.96666666666667 10.1  6.93333333333333 10.4  7.96666666666667 10.4  C 9 10.4  10 10.0666666666667  10.8333333333333 9.53333333333332  C 11 9.43333333333332  11.1666666666667 9.43333333333332  11.3333333333333 9.49999999999999  C 11.3333333333333 9.49999999999999  11.5333333333333 9.59999999999999  11.5333333333333 9.59999999999999  Z M 7.99999999999997 8.8  C 5.79999999999997 8.8  4.0333333333333 6.83333333333333  4.0333333333333 4.4  C 4.0333333333333 1.96666666666667  5.79999999999997 0  7.99999999999997 0  C 10.2 0  11.9666666666666 1.96666666666667  11.9666666666666 4.4  C 11.9666666666666 6.83333333333333  10.2 8.8  7.99999999999997 8.8  Z " fill-rule="nonzero" fill="#7f8fa4" stroke="none" transform="matrix(1 0 0 1 151 11 )" />
  </g>
</svg>