<?xml version="1.0" encoding="utf-8"?>
<svg version="1.1" xmlns:xlink="http://www.w3.org/1999/xlink" width="11px" height="14px" xmlns="http://www.w3.org/2000/svg">
  <g transform="matrix(1 0 0 1 -26 -241 )">
    <path d="M 11 12.5999999999999  C 11 12.5999999999999  11 7.93333333333328  11 7.93333333333328  C 11 5.59999999999995  9.11842105263158 3.70416666666661  6.86052631578947 3.70416666666661  C 6.86052631578947 3.70416666666661  4.13947368421053 3.70416666666661  4.13947368421053 3.70416666666661  C 1.85263157894737 3.70416666666661  0 5.59999999999995  0 7.93333333333328  C 0 7.93333333333328  0 12.5999999999999  0 12.5999999999999  C 0 13.3583333333333  0.607894736842105 13.9999999999999  1.38947368421053 13.9999999999999  C 1.38947368421053 13.9999999999999  9.61052631578947 13.9999999999999  9.61052631578947 13.9999999999999  C 10.3631578947368 13.9999999999999  11 13.3583333333333  11 12.5999999999999  Z M 3.24210526315792 0  C 3.06842105263161 0  2.9526315789474 0.175  3.03947368421056 0.320833333333333  C 3.03947368421056 0.320833333333333  3.90789473684213 2.07083333333333  3.90789473684213 2.07083333333333  C 3.96578947368424 2.24583333333333  4.13947368421056 2.33333333333333  4.31315789473687 2.33333333333333  C 4.31315789473687 2.33333333333333  6.65789473684213 2.33333333333333  6.65789473684213 2.33333333333333  C 6.83157894736845 2.33333333333333  7.00526315789477 2.24583333333333  7.06315789473687 2.07083333333333  C 7.06315789473687 2.07083333333333  7.98947368421056 0.35  7.98947368421056 0.35  C 8.04736842105266 0.175  7.93157894736845 0  7.75789473684214 0  C 7.75789473684214 0  3.24210526315792 0  3.24210526315792 0  Z M 7.67105263157892 9.91666666666669  C 7.69999999999998 10.675  7.09210526315787 11.3458333333334  6.19473684210524 11.5791666666667  C 6.19473684210524 11.5791666666667  6.19473684210524 12.3666666666667  6.19473684210524 12.3666666666667  C 6.19473684210524 12.5125  6.04999999999998 12.6  5.90526315789471 12.6  C 5.90526315789471 12.6  4.97894736842103 12.6  4.97894736842103 12.6  C 4.83421052631577 12.6  4.80526315789471 12.5125  4.80526315789471 12.3666666666667  C 4.80526315789471 12.3666666666667  4.80526315789471 11.6083333333334  4.80526315789471 11.6083333333334  C 4.11052631578945 11.4625  3.5315789473684 11.1708333333334  3.38684210526313 11.025  C 3.21315789473682 10.85  3.15526315789471 10.7041666666667  3.29999999999998 10.5  C 3.29999999999998 10.5  3.5894736842105 10.0333333333334  3.5894736842105 10.0333333333334  C 3.64736842105261 9.91666666666669  3.79210526315787 9.85833333333336  3.93684210526313 9.85833333333336  C 4.02368421052629 9.85833333333336  4.11052631578945 9.88750000000003  4.16842105263155 9.91666666666669  C 4.6315789473684 10.2083333333334  5.06578947368419 10.325  5.35526315789471 10.325  C 5.67368421052629 10.325  5.93421052631577 10.15  5.93421052631577 9.97500000000002  C 5.93421052631577 9.82916666666669  5.84736842105261 9.59583333333336  4.97894736842103 9.30416666666669  C 4.19736842105261 9.01250000000003  3.24210526315787 8.54583333333336  3.24210526315787 7.46666666666669  C 3.24210526315787 6.82500000000003  3.64736842105261 6.09583333333336  4.80526315789471 5.86250000000003  C 4.80526315789471 5.86250000000003  4.80526315789471 5.16250000000003  4.80526315789471 5.16250000000003  C 4.80526315789471 5.01666666666669  4.86315789473682 4.92916666666669  4.97894736842103 4.92916666666669  C 4.97894736842103 4.92916666666669  5.90526315789471 4.92916666666669  5.90526315789471 4.92916666666669  C 6.04999999999998 4.92916666666669  6.19473684210524 5.01666666666669  6.19473684210524 5.16250000000003  C 6.19473684210524 5.16250000000003  6.19473684210524 5.83333333333336  6.19473684210524 5.83333333333336  C 6.65789473684208 5.95000000000003  7.14999999999997 6.18333333333336  7.32368421052629 6.30000000000003  C 7.41052631578945 6.35833333333336  7.46842105263155 6.47500000000003  7.49736842105261 6.59166666666669  C 7.52631578947366 6.70833333333336  7.46842105263155 6.82500000000003  7.41052631578945 6.88333333333336  C 7.41052631578945 6.88333333333336  7.00526315789471 7.29166666666669  7.00526315789471 7.29166666666669  C 6.91842105263156 7.40833333333336  6.74473684210524 7.49583333333336  6.62894736842103 7.49583333333336  C 6.57105263157893 7.49583333333336  6.48421052631577 7.46666666666669  6.42631578947366 7.43750000000003  C 5.96315789473682 7.17500000000003  5.58684210526314 7.02916666666669  5.32631578947366 7.02916666666669  C 4.94999999999998 7.02916666666669  4.77631578947366 7.20416666666669  4.77631578947366 7.32083333333336  C 4.77631578947366 7.49583333333336  4.86315789473682 7.67083333333336  5.64473684210524 7.96250000000003  C 6.59999999999998 8.28333333333336  7.67105263157892 8.80833333333336  7.67105263157892 9.91666666666669  Z " fill-rule="nonzero" fill="#7f8fa4" stroke="none" transform="matrix(1 0 0 1 26 241 )" />
  </g>
</svg>