<?xml version="1.0" encoding="utf-8"?>
<svg version="1.1" xmlns:xlink="http://www.w3.org/1999/xlink" width="14px" height="14px" xmlns="http://www.w3.org/2000/svg">
  <g transform="matrix(1 0 0 1 -24 -144 )">
    <path d="M 5.25 12.3958333333333  C 5.25 12.6291666666667  5.45416666666667 12.8333333333333  5.6875 12.8333333333333  C 5.6875 12.8333333333333  8.3125 12.8333333333333  8.3125 12.8333333333333  C 8.54583333333333 12.8333333333333  8.75 12.6291666666667  8.75 12.3958333333333  C 8.75 12.3958333333333  8.75 4.52083333333333  8.75 4.52083333333333  C 8.75 4.2875  8.54583333333333 4.08333333333333  8.3125 4.08333333333333  C 8.3125 4.08333333333333  5.6875 4.08333333333333  5.6875 4.08333333333333  C 5.45416666666667 4.08333333333333  5.25 4.2875  5.25 4.52083333333333  C 5.25 4.52083333333333  5.25 12.3958333333333  5.25 12.3958333333333  Z M 0 13.5625  C 0 13.7958333333333  0.204166666666667 14  0.4375 14  C 0.4375 14  3.0625 14  3.0625 14  C 3.29583333333333 14  3.5 13.7958333333333  3.5 13.5625  C 3.5 13.5625  3.5 4.52083333333333  3.5 4.52083333333333  C 3.5 4.2875  3.29583333333333 4.08333333333333  3.0625 4.08333333333333  C 3.0625 4.08333333333333  0.4375 4.08333333333333  0.4375 4.08333333333333  C 0.204166666666667 4.08333333333333  0 4.2875  0 4.52083333333333  C 0 4.52083333333333  0 13.5625  0 13.5625  Z M 10.9375 11.6666666666667  C 10.9375 11.6666666666667  13.5625 11.6666666666667  13.5625 11.6666666666667  C 13.7958333333333 11.6666666666667  14 11.4625  14 11.2291666666667  C 14 11.2291666666667  14 4.52083333333333  14 4.52083333333333  C 14 4.2875  13.7958333333333 4.08333333333333  13.5625 4.08333333333333  C 13.5625 4.08333333333333  10.9375 4.08333333333333  10.9375 4.08333333333333  C 10.7041666666667 4.08333333333333  10.5 4.2875  10.5 4.52083333333333  C 10.5 4.52083333333333  10.5 11.2291666666667  10.5 11.2291666666667  C 10.5 11.4625  10.7041666666667 11.6666666666667  10.9375 11.6666666666667  Z M 13.5625 2.33333333333333  C 13.7958333333333 2.33333333333333  14 2.12916666666667  14 1.89583333333333  C 14 1.89583333333333  14 0.4375  14 0.4375  C 14 0.204166666666667  13.7958333333333 0  13.5625 0  C 13.5625 0  0.4375 0  0.4375 0  C 0.204166666666667 0  0 0.204166666666667  0 0.4375  C 0 0.4375  0 1.89583333333333  0 1.89583333333333  C 0 2.12916666666667  0.204166666666667 2.33333333333333  0.4375 2.33333333333333  C 0.4375 2.33333333333333  13.5625 2.33333333333333  13.5625 2.33333333333333  Z " fill-rule="nonzero" fill="#db4e18" stroke="none" transform="matrix(1 0 0 1 24 144 )" />
  </g>
</svg>