<?xml version="1.0" encoding="utf-8"?>
<svg version="1.1" xmlns:xlink="http://www.w3.org/1999/xlink" width="14px" height="14px" xmlns="http://www.w3.org/2000/svg">
  <g transform="matrix(1 0 0 1 -24 -290 )">
    <path d="M 13.8134110787172 2.98169717138103  C 13.7667638483965 2.81863560732113  13.5568513119534 2.7720465890183  13.4169096209913 2.88851913477537  C 13.4169096209913 2.88851913477537  11.0612244897959 5.24126455906822  11.0612244897959 5.24126455906822  C 10.8746355685131 5.42762063227953  10.5947521865889 5.42762063227953  10.4081632653061 5.24126455906822  C 10.4081632653061 5.24126455906822  8.75218658892129 3.5873544093178  8.75218658892129 3.5873544093178  C 8.56559766763849 3.40099833610649  8.56559766763849 3.12146422628952  8.75218658892129 2.9351081530782  C 8.75218658892129 2.9351081530782  11.131195335277 0.559068219633943  11.131195335277 0.559068219633943  C 11.2478134110787 0.442595673876872  11.201166180758 0.232945091514143  11.0379008746356 0.1630615640599  C 10.6413994169096 0.0698835274542431  10.2215743440233 0  9.80174927113703 0  C 7.32944606413994 0  5.3469387755102 2.14309484193012  5.6268221574344 4.65890183028286  C 5.6734693877551 5.05490848585691  5.7667638483965 5.40432612312812  5.9067055393586 5.75374376039934  C 5.9067055393586 5.75374376039934  0.472303206997084 11.2046589018303  0.472303206997084 11.2046589018303  C -0.157434402332361 11.8336106489185  -0.157434402332361 12.8818635607321  0.472303206997084 13.5108153078203  C 0.798833819241982 13.8369384359401  1.21865889212828 14  1.63848396501458 14  C 2.05830903790088 14  2.47813411078717 13.8369384359401  2.80466472303207 13.5108153078203  C 2.80466472303207 13.5108153078203  8.23906705539358 8.08319467554077  8.23906705539358 8.08319467554077  C 8.58892128279883 8.22296173044925  8.96209912536443 8.31613976705491  9.33527696793003 8.36272878535774  C 11.8775510204082 8.64226289517471  14 6.6622296173045  14 4.19301164725458  C 14 3.77371048252912  13.930029154519 3.35440931780366  13.8134110787172 2.98169717138103  Z " fill-rule="nonzero" fill="#7f8fa4" stroke="none" transform="matrix(1 0 0 1 24 290 )" />
  </g>
</svg>