<?xml version="1.0" encoding="UTF-8"?>
<svg width="23px" height="23px" viewBox="0 0 23 23" version="1.1" xmlns="http://www.w3.org/2000/svg" xmlns:xlink="http://www.w3.org/1999/xlink">
    <!-- Generator: Sketch 59.1 (86144) - https://sketch.com -->
    <title>Einstein-Icon</title>
    <desc>Created with Sketch.</desc>
    <g id="Page-1" stroke="none" stroke-width="1" fill="none" fill-rule="evenodd">
        <g id="Einstein-Icon" transform="translate(11.500000, 11.500000) scale(-1, 1) translate(-11.500000, -11.500000) " fill="#0E70C7" fill-rule="nonzero">
            <path d="M9.69909814,15.4123711 C10.0910491,15.4123711 10.4087882,15.9431676 10.4087882,16.5979381 C10.4087882,17.2527087 10.0910491,17.7835052 9.69909814,17.7835052 C9.30714718,17.7835052 8.98940804,17.2527087 8.98940804,16.5979381 C8.98940804,15.9431676 9.30714718,15.4123711 9.69909814,15.4123711 Z M13.0109853,15.4123711 C13.4029363,15.4123711 13.7206754,15.9431676 13.7206754,16.5979381 C13.7206754,17.2527087 13.4029363,17.7835052 13.0109853,17.7835052 C12.6190343,17.7835052 12.3012952,17.2527087 12.3012952,16.5979381 C12.3012952,15.9431676 12.6190343,15.4123711 13.0109853,15.4123711 Z M12.8885678,19.2452141 C12.9746078,19.2506522 13.0675715,19.2590883 13.1687414,19.2698946 C13.9982428,19.3584959 15.4505462,20.2252978 16.5594358,21.7777395 C15.4307312,22.9772298 14.3004998,23.181507 13.1687414,22.3905709 L13.1687414,23 C12.2383982,23 11.6338317,22.6925656 11.3550417,22.0776972 C11.0762518,22.6925656 10.4716852,23 9.54134208,23 L9.54134208,22.3905709 C8.40958365,23.181507 7.27935224,22.9772298 6.15064761,21.7777395 C7.25953722,20.2252978 8.81213171,19.3304776 9.54134208,19.2698946 C9.64048294,19.2616579 9.73313441,19.2553306 9.8210035,19.2516652 C9.81137206,19.3143059 9.80662684,19.3782933 9.80662684,19.443299 C9.80662684,20.2290235 10.4998758,20.8659794 11.3550417,20.8659794 C12.2102077,20.8659794 12.9034566,20.2290235 12.9034566,19.443299 C12.9034566,19.37608 12.8983828,19.3099498 12.8885678,19.2452141 Z M13.5104011,2.30654661 C14.9675179,4.03583079 14.6441613,4.82414524 14.7076474,5.37515468 C16.2880122,5.03952568 17.5752524,5.33367688 18.4430556,5.75873068 C19.3108589,6.18378451 19.8318614,6.86151173 19.879751,7.34098173 C19.1614034,7.48482273 18.6825048,7.72455773 18.4430556,8.06018675 C19.3050728,8.39581574 20.4943852,8.90214545 21.3643364,9.93011978 C22.2342878,10.9580941 22.4658031,11.4644238 22.9447015,12.6151518 C23.0404813,12.7589929 22.9925914,12.9507809 22.9447015,12.9987278 C22.3221334,13.6220389 21.9118431,14.0280354 21.4601162,14.3412439 C21.0083892,14.6544524 19.7360816,15.5399189 19.4966324,15.6358129 C20.2628699,16.1152829 20.6459888,16.5468059 20.6938787,17.0262759 C19.879751,17.2781851 19.3878128,17.4395789 18.8670715,17.6333342 C18.621232,17.7248052 18.1479054,17.8938247 17.6178698,18.0720099 C18.3924755,13.0538974 15.2127215,12.5973373 13.8041612,12.5973373 C12.7838816,12.5973373 12.2363666,13.4294122 11.3777873,13.4294122 C10.5192077,13.4294122 9.99248001,12.5990446 8.94272983,12.5990446 C7.86301085,12.5990446 4.90637114,13.4464136 5.4280279,17.7775069 C5.16336293,17.6694823 4.87214562,17.5636406 4.55499907,17.457799 C3.78876157,17.218064 2.97463417,17.074223 2.16050655,17.0262759 C1.9809197,17.0262759 1.88551417,16.8998532 1.87428995,16.7260219 L1.87316745,16.6906469 L1.87316745,16.5947529 C2.11261666,15.6358129 2.70856922,14.8632615 3.02252383,14.5330319 C3.33647843,14.2028023 3.98032088,13.7658799 4.21977009,13.8138269 C3.92560567,13.3020492 3.30986292,12.7074355 2.5915153,12.3274698 C1.87316745,11.9475042 0.532251762,11.7521058 0.292802557,11.7041588 C0.0533531156,11.6562118 -0.0811575255,11.6562118 0.0533531156,11.2246888 C0.867480744,9.16296777 1.82527756,7.86839873 2.97463417,7.29303472 C4.12399055,6.71767072 5.12967726,6.4779357 5.84802511,6.57382972 C5.68201345,5.97955207 5.50372463,5.62682004 5.37934978,5.37515468 C5.25497517,5.12348932 5.13449865,4.88162902 4.79444827,4.46416167 C4.69866873,4.32032066 4.69866873,4.08058567 4.84233816,3.98469165 C4.89022805,3.98469165 4.93811794,3.93674466 4.98600783,3.93674466 C5.46490624,3.84085064 5.94380465,3.88879765 6.47059318,4.03263866 C7.14105091,4.22442667 7.76361899,4.65594966 8.33829717,5.32720769 C8.29040752,3.36138064 8.09884797,1.6832356 7.66783945,0.388666567 C7.61994956,-0.666167447 12.0532843,0.577262441 13.5104011,2.30654661 Z" id="Icon---V3"></path>
        </g>
    </g>
</svg>