<?xml version="1.0" encoding="utf-8"?>
<svg version="1.1" xmlns:xlink="http://www.w3.org/1999/xlink" width="15px" height="16px" xmlns="http://www.w3.org/2000/svg">
  <g transform="matrix(1 0 0 1 -183 -11 )">
    <path d="M 15 11.6850206010206  C 15 11.6850206010206  15 11.2050206010206  15 11.2050206010206  C 15 10.5010206010206  14.4375 9.92502060102064  13.75 9.92502060102064  C 13.75 9.92502060102064  13.59375 9.92502060102064  13.59375 9.92502060102064  C 13 9.92502060102064  12.5 9.41302060102064  12.5 8.80502060102064  C 12.5 8.80502060102064  12.5 5.12502060102064  12.5 5.12502060102064  C 12.5 2.21302060102064  10.125 -0.122979398979362  7.25 0.00502060102063751  C 4.5625 0.133020601020638  2.5 2.50102060102064  2.5 5.28502060102064  C 2.5 5.28502060102064  2.5 8.83702060102064  2.5 8.83702060102064  C 2.5 9.44502060102064  2 9.92502060102064  1.40625 9.92502060102064  C 1.40625 9.92502060102064  1.25 9.92502060102064  1.25 9.92502060102064  C 0.5625 9.92502060102064  0 10.5330206010206  0 11.2370206010206  C 0 11.2370206010206  0 11.7170206010206  0 11.7170206010206  C 0 11.9410206010206  0.21875 12.1650206010206  0.46875 12.1650206010206  C 0.46875 12.1650206010206  14.53125 12.1650206010206  14.53125 12.1650206010206  C 14.78125 12.1650206010206  15 11.9410206010206  15 11.6850206010206  Z M 7.50000000000004 15.3650206010207  C 8.40625000000004 15.3650206010207  9.18750000000004 14.6930206010207  9.34375000000004 13.8290206010207  C 9.37500000000004 13.6370206010207  9.21875000000004 13.4450206010207  9.03125000000004 13.4450206010207  C 9.03125000000004 13.4450206010207  5.96875000000004 13.4450206010207  5.96875000000004 13.4450206010207  C 5.78125000000004 13.4450206010207  5.62500000000004 13.6370206010207  5.65625000000004 13.8290206010207  C 5.81250000000004 14.7250206010207  6.59375000000004 15.3650206010207  7.50000000000004 15.3650206010207  Z " fill-rule="nonzero" fill="#7f8fa4" stroke="none" transform="matrix(1 0 0 1 183 11 )" />
  </g>
</svg>