<?xml version="1.0" encoding="utf-8"?>
<svg version="1.1" xmlns:xlink="http://www.w3.org/1999/xlink" width="14px" height="10px" xmlns="http://www.w3.org/2000/svg">
  <g transform="matrix(1 0 0 1 -11 -11 )">
    <path d="M 4.95407098121086 9.84547461368653  C 4.95407098121086 9.84547461368653  0.131524008350731 4.95952906548933  0.131524008350731 4.95952906548933  C -0.0438413361169102 4.78292862398822  -0.0438413361169102 4.48859455481972  0.131524008350731 4.31199411331862  C 0.131524008350731 4.31199411331862  0.774530271398747 3.6644591611479  0.774530271398747 3.6644591611479  C 0.949895615866388 3.4878587196468  1.24217118997912 3.4878587196468  1.41753653444676 3.6644591611479  C 1.41753653444676 3.6644591611479  5.04175365344468 7.34363502575423  5.04175365344468 7.34363502575423  C 5.15866388308977 7.46136865342163  5.36325678496868 7.46136865342163  5.48016701461378 7.34363502575423  C 5.48016701461378 7.34363502575423  12.5824634655532 0.132450331125828  12.5824634655532 0.132450331125828  C 12.7578288100209 -0.0441501103752759  13.0501043841336 -0.0441501103752759  13.2254697286013 0.132450331125828  C 13.2254697286013 0.132450331125828  13.8684759916493 0.779985283296541  13.8684759916493 0.779985283296541  C 14.0438413361169 0.956585724797645  14.0438413361169 1.25091979396615  13.8684759916493 1.42752023546725  C 13.8684759916493 1.42752023546725  5.59707724425887 9.84547461368653  5.59707724425887 9.84547461368653  C 5.42171189979123 10.0515084621045  5.1294363256785 10.0515084621045  4.95407098121086 9.84547461368653  Z " fill-rule="nonzero" fill="#1589ee" stroke="none" transform="matrix(1 0 0 1 11 11 )" />
  </g>
</svg>