<?xml version="1.0" encoding="utf-8"?>
<svg version="1.1" xmlns:xlink="http://www.w3.org/1999/xlink" width="14px" height="14px" xmlns="http://www.w3.org/2000/svg">
  <g transform="matrix(1 0 0 1 -24 -193 )">
    <path d="M 0 12.5  C 0 13.325  0.674999999999997 14  1.5 14  C 1.5 14  12.5 14  12.5 14  C 13.325 14  14 13.325  14 12.5  C 14 12.5  14 1.5  14 1.5  C 14 0.675000000000011  13.325 0  12.5 0  C 12.5 0  1.5 0  1.5 0  C 0.674999999999997 0  0 0.675000000000011  0 1.5  C 0 1.5  0 12.5  0 12.5  Z M 2.5 11  C 2.5 11  2.5 8.25  2.5 8.25  C 2.5 7.975  2.72499999999999 7.75  3 7.75  C 3 7.75  3.5 7.75  3.5 7.75  C 3.77500000000001 7.75  4 7.975  4 8.25  C 4 8.25  4 11  4 11  C 4 11.275  3.77500000000001 11.5  3.5 11.5  C 3.5 11.5  3 11.5  3 11.5  C 2.72499999999999 11.5  2.5 11.275  2.5 11  Z M 5 4.5  C 5 4.22499999999999  5.22499999999999 4  5.5 4  C 5.5 4  6 4  6 4  C 6.27500000000001 4  6.5 4.22499999999999  6.5 4.5  C 6.5 4.5  6.5 11  6.5 11  C 6.5 11.275  6.27500000000001 11.5  6 11.5  C 6 11.5  5.5 11.5  5.5 11.5  C 5.22499999999999 11.5  5 11.275  5 11  C 5 11  5 4.5  5 4.5  Z M 8 2.5  C 8 2.5  8.5 2.5  8.5 2.5  C 8.77500000000001 2.5  9 2.72499999999999  9 3  C 9 3  9 11  9 11  C 9 11.275  8.77500000000001 11.5  8.5 11.5  C 8.5 11.5  8 11.5  8 11.5  C 7.72499999999999 11.5  7.5 11.275  7.5 11  C 7.5 11  7.5 3  7.5 3  C 7.5 2.72499999999999  7.72499999999999 2.5  8 2.5  Z M 11 5.75  C 11.275 5.75  11.5 5.97499999999999  11.5 6.25  C 11.5 6.25  11.5 11  11.5 11  C 11.5 11.275  11.275 11.5  11 11.5  C 11 11.5  10.5 11.5  10.5 11.5  C 10.225 11.5  10 11.275  10 11  C 10 11  10 6.25  10 6.25  C 10 5.97499999999999  10.225 5.75  10.5 5.75  C 10.5 5.75  11 5.75  11 5.75  Z " fill-rule="nonzero" fill="#7f8fa4" stroke="none" transform="matrix(1 0 0 1 24 193 )" />
  </g>
</svg>